<svg width="18" height="18" viewBox="0 0 18 18" fill="none" xmlns="http://www.w3.org/2000/svg">
<g opacity="0.7">
<path d="M16.875 8.9668H1.125C0.504738 8.9668 0 9.47154 0 10.0918C0 10.7121 0.504738 11.2168 1.125 11.2168H16.875C17.4953 11.2168 18 10.7121 18 10.0918C18 9.47154 17.4953 8.9668 16.875 8.9668Z" fill="#6D6D6D"/>
<path d="M16.9786 10.4809C16.7754 10.4239 16.5714 10.5394 16.5151 10.7389L16.4859 10.8416H1.51511L1.48512 10.7389C1.42887 10.5394 1.22338 10.4254 1.02162 10.4809C0.822105 10.5378 0.707355 10.7456 0.764379 10.9444L1.79787 14.5624C2.11811 15.6836 3.15613 16.4666 4.32163 16.4666H13.6779C14.8441 16.4666 15.8814 15.6836 16.2016 14.5624L17.2351 10.9444C17.2929 10.7456 17.1774 10.5378 16.9786 10.4809ZM4.32237 14.9666C3.82287 14.9666 3.37737 14.6313 3.24086 14.1506L2.75412 12.4451C2.69713 12.2456 2.81262 12.0386 3.01136 11.9816C3.21234 11.9246 3.41861 12.0408 3.47486 12.2396L3.96159 13.9451C4.00811 14.1048 4.15583 14.2173 4.32233 14.2173C4.52933 14.2173 4.69734 14.3853 4.69734 14.5923C4.69738 14.7993 4.52937 14.9666 4.32237 14.9666Z" fill="#6D6D6D"/>
<path d="M5.04221 15.7557C4.85698 15.665 4.63271 15.7377 4.53895 15.9237L3.78896 17.4237C3.69671 17.609 3.7717 17.834 3.95698 17.927C4.01171 17.954 4.06874 17.9668 4.12499 17.9668C4.26224 17.9668 4.39425 17.891 4.46024 17.759L5.21023 16.259C5.30248 16.0737 5.22745 15.8487 5.04221 15.7557Z" fill="#6D6D6D"/>
<path d="M14.211 17.4244L13.461 15.9244C13.368 15.7384 13.143 15.6641 12.9577 15.7564C12.7725 15.8494 12.6974 16.0744 12.7897 16.2596L13.5397 17.7597C13.6057 17.8909 13.7377 17.9667 13.8749 17.9667C13.9312 17.9667 13.9882 17.9539 14.0429 17.9277C14.2282 17.8346 14.3032 17.6096 14.211 17.4244Z" fill="#6D6D6D"/>
<path d="M15.0637 0.0334473C14.6812 0.0334473 14.3212 0.182686 14.0504 0.453459L12.8602 1.64371C12.7139 1.78996 12.7139 2.02772 12.8602 2.17397C13.0064 2.32022 13.2442 2.32022 13.3904 2.17397L14.5807 0.984459C14.7089 0.855471 14.8806 0.784209 15.0674 0.784209C15.4439 0.784209 15.7499 1.09021 15.7499 1.4667V9.3417C15.7499 9.5487 15.9179 9.71671 16.1249 9.71671C16.3319 9.71671 16.4999 9.5487 16.5006 9.34096V1.46596C16.5007 0.676209 15.8587 0.0334473 15.0637 0.0334473Z" fill="#6D6D6D"/>
<path d="M13.7654 2.01864L13.0154 1.26865C12.9299 1.18315 12.8107 1.14339 12.6892 1.16364L10.8142 1.47115C10.6762 1.49365 10.5629 1.59114 10.5187 1.72315C10.4744 1.85517 10.5082 2.00215 10.6057 2.10189L12.8557 4.41939C12.927 4.49364 13.0252 4.5334 13.1242 4.5334C13.1594 4.5334 13.1954 4.52817 13.2307 4.51765C13.3642 4.47867 13.4654 4.36842 13.4924 4.2319L13.8674 2.35692C13.8921 2.23464 13.8539 2.10787 13.7654 2.01864Z" fill="#6D6D6D"/>
<path d="M8.88969 4.57697C8.74344 4.43072 8.50568 4.43072 8.35943 4.57697L7.60944 5.32696C7.46319 5.47321 7.46319 5.71097 7.60944 5.85722C7.68296 5.92996 7.77893 5.96673 7.87494 5.96673C7.97096 5.96673 8.06693 5.93 8.13971 5.85722L8.88969 5.10723C9.03594 4.96095 9.03594 4.72322 8.88969 4.57697Z" fill="#6D6D6D"/>
<path d="M10.3897 6.07697C10.2434 5.93072 10.0057 5.93072 9.85943 6.07697L9.10944 6.82696C8.96319 6.97321 8.96319 7.21097 9.10944 7.35722C9.18296 7.42996 9.27893 7.46673 9.37494 7.46673C9.47096 7.46673 9.56693 7.43 9.63971 7.35722L10.3897 6.60723C10.5359 6.46098 10.5359 6.22322 10.3897 6.07697Z" fill="#6D6D6D"/>
<path d="M11.1397 3.82697C10.9934 3.68072 10.7557 3.68072 10.6094 3.82697L9.85944 4.57696C9.71319 4.72321 9.71319 4.96097 9.85944 5.10722C9.93296 5.17996 10.0289 5.21673 10.1249 5.21673C10.221 5.21673 10.3169 5.18 10.3897 5.10722L11.1397 4.35723C11.2859 4.21098 11.2859 3.97322 11.1397 3.82697Z" fill="#6D6D6D"/>
</g>
</svg>
