<svg width="10" height="14" viewBox="0 0 10 14" fill="none" xmlns="http://www.w3.org/2000/svg">
<g opacity="0.7">
<path d="M8.73236 12.8672H7.35358V13.2025C7.35358 13.3803 7.402 13.5509 7.48819 13.6766C7.57438 13.8024 7.69128 13.873 7.81317 13.873H8.27276C8.39465 13.873 8.51155 13.8024 8.59774 13.6766C8.68393 13.5509 8.73236 13.3803 8.73236 13.2025V12.8672Z" fill="#6D6D6D"/>
<path d="M1.8384 12.8672H0.459625V13.2025C0.459625 13.3803 0.508046 13.5509 0.594237 13.6766C0.680427 13.8024 0.797327 13.873 0.919218 13.873H1.37881C1.5007 13.873 1.6176 13.8024 1.70379 13.6766C1.78998 13.5509 1.8384 13.3803 1.8384 13.2025V12.8672Z" fill="#6D6D6D"/>
<path d="M6.66417 5.15482V5.4901H2.52783V5.15482C2.52783 4.79914 2.62467 4.45803 2.79706 4.20652C2.96944 3.95502 3.20323 3.81372 3.44702 3.81372H5.74498C5.98877 3.81372 6.22256 3.95502 6.39494 4.20652C6.56733 4.45803 6.66417 4.79914 6.66417 5.15482Z" fill="#6D6D6D"/>
<path d="M6.89383 0.126953H2.29791C1.87143 0.127663 1.46257 0.375156 1.16101 0.815138C0.859448 1.25512 0.689818 1.85166 0.689331 2.47388V5.80653C0.974937 5.59933 1.28955 5.49146 1.60852 5.49137H2.06811V5.15609C2.06811 4.62257 2.21337 4.1109 2.47194 3.73364C2.73052 3.35638 3.08121 3.14444 3.44689 3.14444H5.74485C6.11053 3.14444 6.46123 3.35638 6.7198 3.73364C6.97837 4.1109 7.12363 4.62257 7.12363 5.15609V5.49137H7.58322C7.90219 5.49146 8.2168 5.59933 8.50241 5.80653V2.47388C8.50192 1.85166 8.33229 1.25512 8.03073 0.815138C7.72917 0.375156 7.32031 0.127663 6.89383 0.126953V0.126953Z" fill="#6D6D6D"/>
<path d="M0 10.1855V11.5267C0 11.7045 0.0484212 11.875 0.134612 12.0008C0.220802 12.1266 0.337701 12.1972 0.459593 12.1972H8.73226C8.85416 12.1972 8.97106 12.1266 9.05725 12.0008C9.14344 11.875 9.19186 11.7045 9.19186 11.5267V10.1855H0Z" fill="#6D6D6D"/>
<path d="M9.19186 9.51462V8.5088C9.19186 7.88635 9.02238 7.2894 8.72072 6.84927C8.41905 6.40913 8.0099 6.16187 7.58328 6.16187H1.60858C1.18195 6.16187 0.772807 6.40913 0.471141 6.84927C0.169474 7.2894 0 7.88635 0 8.5088V9.51462H9.19186Z" fill="#6D6D6D"/>
</g>
</svg>
