<svg width="21" height="14" viewBox="0 0 21 14" fill="none" xmlns="http://www.w3.org/2000/svg">
<g opacity="0.7">
<path d="M8.73234 12.9192H7.35356V13.2545C7.35356 13.4323 7.40198 13.6029 7.48817 13.7286C7.57436 13.8544 7.69126 13.925 7.81315 13.925H8.27275C8.39464 13.925 8.51154 13.8544 8.59773 13.7286C8.68392 13.6029 8.73234 13.4323 8.73234 13.2545V12.9192Z" fill="#6D6D6D"/>
<path d="M1.83841 12.9192H0.459633V13.2545C0.459633 13.4323 0.508054 13.6029 0.594244 13.7286C0.680435 13.8544 0.797334 13.925 0.919226 13.925H1.37882C1.50071 13.925 1.61761 13.8544 1.7038 13.7286C1.78999 13.6029 1.83841 13.4323 1.83841 13.2545V12.9192Z" fill="#6D6D6D"/>
<path d="M6.66417 5.20683V5.5421H2.52783V5.20683C2.52783 4.85114 2.62467 4.51003 2.79706 4.25852C2.96944 4.00702 3.20323 3.86572 3.44702 3.86572H5.74498C5.98877 3.86572 6.22256 4.00702 6.39494 4.25852C6.56733 4.51003 6.66417 4.85114 6.66417 5.20683Z" fill="#6D6D6D"/>
<path d="M6.89382 0.178955H2.29789C1.87142 0.179665 1.46255 0.427158 1.16099 0.86714C0.859433 1.30712 0.689802 1.90366 0.689316 2.52589V5.85853C0.974921 5.65133 1.28954 5.54346 1.6085 5.54337H2.06809V5.20809C2.06809 4.67457 2.21336 4.1629 2.47193 3.78564C2.7305 3.40838 3.0812 3.19644 3.44687 3.19644H5.74484C6.11051 3.19644 6.46121 3.40838 6.71978 3.78564C6.97835 4.1629 7.12362 4.67457 7.12362 5.20809V5.54337H7.58321C7.90217 5.54346 8.21679 5.65133 8.50239 5.85853V2.52589C8.50191 1.90366 8.33228 1.30712 8.03072 0.86714C7.72916 0.427158 7.32029 0.179665 6.89382 0.178955Z" fill="#6D6D6D"/>
<path d="M0 10.2375V11.5787C0 11.7565 0.0484212 11.9271 0.134612 12.0528C0.220802 12.1786 0.337701 12.2492 0.459593 12.2492H8.73226C8.85416 12.2492 8.97106 12.1786 9.05725 12.0528C9.14344 11.9271 9.19186 11.7565 9.19186 11.5787V10.2375H0Z" fill="#6D6D6D"/>
<path d="M9.19186 9.56663V8.5608C9.19186 7.93835 9.02238 7.3414 8.72072 6.90127C8.41905 6.46113 8.0099 6.21387 7.58328 6.21387H1.60858C1.18195 6.21387 0.772807 6.46113 0.471141 6.90127C0.169474 7.3414 0 7.93835 0 8.5608V9.56663H9.19186Z" fill="#6D6D6D"/>
<path d="M20.5402 12.8152H19.1614V13.1505C19.1614 13.3283 19.2098 13.4989 19.296 13.6246C19.3822 13.7504 19.4991 13.821 19.621 13.821H20.0806C20.2025 13.821 20.3194 13.7504 20.4056 13.6246C20.4918 13.4989 20.5402 13.3283 20.5402 13.1505V12.8152Z" fill="#6D6D6D"/>
<path d="M13.6465 12.8152H12.2677V13.1505C12.2677 13.3283 12.3162 13.4989 12.4023 13.6246C12.4885 13.7504 12.6054 13.821 12.7273 13.821H13.1869C13.3088 13.821 13.4257 13.7504 13.5119 13.6246C13.5981 13.4989 13.6465 13.3283 13.6465 13.1505V12.8152Z" fill="#6D6D6D"/>
<path d="M18.4723 5.10355V5.43883H14.3359V5.10355C14.3359 4.74787 14.4328 4.40676 14.6052 4.15525C14.7775 3.90375 15.0113 3.76245 15.2551 3.76245H17.5531C17.7969 3.76245 18.0307 3.90375 18.203 4.15525C18.3754 4.40676 18.4723 4.74787 18.4723 5.10355Z" fill="#6D6D6D"/>
<path d="M18.7022 0.0749512H14.1062C13.6798 0.0756611 13.2709 0.323154 12.9694 0.763136C12.6678 1.20312 12.4982 1.79966 12.4977 2.42188V5.75453C12.7833 5.54733 13.0979 5.43946 13.4169 5.43937H13.8765V5.10409C13.8765 4.57057 14.0217 4.05889 14.2803 3.68164C14.5389 3.30438 14.8896 3.09243 15.2552 3.09243H17.5532C17.9189 3.09243 18.2696 3.30438 18.5281 3.68164C18.7867 4.05889 18.932 4.57057 18.932 5.10409V5.43937H19.3916C19.7105 5.43946 20.0251 5.54733 20.3108 5.75453V2.42188C20.3103 1.79966 20.1406 1.20312 19.8391 0.763136C19.5375 0.323154 19.1286 0.0756611 18.7022 0.0749512Z" fill="#6D6D6D"/>
<path d="M11.8081 10.1338V11.4749C11.8081 11.6527 11.8565 11.8233 11.9427 11.949C12.0289 12.0748 12.1458 12.1454 12.2677 12.1454H20.5404C20.6623 12.1454 20.7792 12.0748 20.8653 11.949C20.9515 11.8233 21 11.6527 21 11.4749V10.1338H11.8081Z" fill="#6D6D6D"/>
<path d="M21 9.46287V8.45704C21 7.83459 20.8305 7.23764 20.5288 6.79751C20.2271 6.35737 19.818 6.11011 19.3914 6.11011H13.4167C12.9901 6.11011 12.5809 6.35737 12.2792 6.79751C11.9776 7.23764 11.8081 7.83459 11.8081 8.45704V9.46287H21Z" fill="#6D6D6D"/>
</g>
</svg>
