<svg width="36" height="33" viewBox="0 0 36 33" fill="none" xmlns="http://www.w3.org/2000/svg">
<path d="M4.3262 7.10938H26.6437V20.7293H4.3262V7.10938Z" fill="#BC584C"/>
<path d="M9.73019 11.4998H21.239V16.3376H9.73019V11.4998Z" fill="#1E3045"/>
<path d="M0.60498 20.729H30.3646V23.7527H0.60498V20.729Z" fill="#BC584C"/>
<path d="M5.53592 23.7529V30.3647H3.11644V23.7529H5.53592Z" fill="#BC584C"/>
<path d="M27.853 23.7529V30.3647H25.4335V23.7529H27.853Z" fill="#BC584C"/>
<path d="M15.4848 0.60498L0.605011 7.10926H30.3646L15.4848 0.60498Z" fill="#1E3045"/>
<path d="M9.73008 10.8948C9.39607 10.8948 9.12521 11.1656 9.12521 11.4996V16.3375C9.12521 16.6715 9.39607 16.9423 9.73008 16.9423H21.2389C21.5729 16.9423 21.8438 16.6715 21.8438 16.3375V11.4996C21.8438 11.1656 21.5729 10.8948 21.2389 10.8948H9.73008ZM10.335 12.1045H14.8796V15.7326H10.335V12.1045ZM20.634 15.7326H16.0893V12.1046H20.634V15.7326Z" fill="#1E3045"/>
<path d="M30.3644 20.124H27.2482V14.3343C27.2482 14.0002 26.9774 13.7294 26.6433 13.7294C26.3093 13.7294 26.0385 14.0002 26.0385 14.3343V20.124H4.93081V7.7139H26.0385V9.49536C26.0385 9.82937 26.3093 10.1002 26.6433 10.1002C26.9774 10.1002 27.2482 9.82937 27.2482 9.49536V7.7139H30.3644C30.6508 7.7139 30.8979 7.51309 30.9565 7.23279C31.0151 6.95249 30.8691 6.66948 30.6067 6.55479L15.7269 0.0505821C15.5725 -0.0168607 15.3968 -0.0168607 15.2424 0.0505821L0.362662 6.55479C0.10021 6.66948 -0.0457451 6.95249 0.0128666 7.23279C0.0714179 7.51309 0.318567 7.7139 0.604912 7.7139H3.72113V20.124H0.604912C0.270903 20.124 4.34351e-05 20.3949 4.34351e-05 20.7289V23.7526C4.34351e-05 24.0866 0.270843 24.3575 0.604912 24.3575H2.5114V30.3643C2.5114 30.6983 2.78226 30.9692 3.11626 30.9692H5.53574C5.86975 30.9692 6.14061 30.6984 6.14061 30.3643V27.6633H24.8288V30.3643C24.8288 30.6983 25.0997 30.9692 25.4337 30.9692H27.8531C28.1872 30.9692 28.458 30.6984 28.458 30.3643V24.3574H30.3645C30.6985 24.3574 30.9694 24.0865 30.9694 23.7525V20.7289C30.9693 20.3948 30.6984 20.124 30.3644 20.124ZM15.4847 1.26498L27.4705 6.50416H3.49878L15.4847 1.26498ZM4.93081 29.7594H3.72107V24.3574H4.93081V29.7594ZM6.14055 26.4536V24.3575H24.8287V26.4536H6.14055ZM27.2482 29.7594H26.0385V24.3574H27.2482V29.7594ZM29.7596 23.1477H1.20978V21.3338H29.7596V23.1477Z" fill="#1E3045"/>
<path d="M26.6432 12.5193C26.9772 12.5193 27.248 12.2485 27.248 11.9144C27.248 11.5804 26.9772 11.3096 26.6432 11.3096C26.3091 11.3096 26.0383 11.5804 26.0383 11.9144C26.0383 12.2485 26.3091 12.5193 26.6432 12.5193Z" fill="#1E3045"/>
<circle cx="27.3096" cy="24.7081" r="7.95808" fill="#E1D3C8" stroke="#1E3045" stroke-width="0.5"/>
<path d="M27.0583 21.5324C27.544 21.837 27.8846 22.3521 27.9469 22.9504C28.1448 23.0428 28.3647 23.0962 28.5977 23.0962C29.4485 23.0962 30.1382 22.4065 30.1382 21.5556C30.1382 20.7047 29.4485 20.0151 28.5977 20.0151C27.7546 20.0152 27.0711 20.6925 27.0583 21.5324ZM26.049 24.6868C26.8998 24.6868 27.5895 23.9968 27.5895 23.1463C27.5895 22.2955 26.8998 21.6057 26.049 21.6057C25.1983 21.6057 24.5083 22.2955 24.5083 23.1463C24.5083 23.9968 25.1983 24.6868 26.049 24.6868ZM26.7025 24.7916H25.3955C24.3079 24.7916 23.4229 25.6766 23.4229 26.7643V28.363L23.427 28.388L23.537 28.4222C24.575 28.7464 25.4768 28.8548 26.2191 28.8548C27.6686 28.8548 28.5091 28.4415 28.5609 28.4151L28.6638 28.363H28.6747V26.7643C28.6748 25.6766 27.7902 24.7916 26.7025 24.7916ZM29.2515 23.2013H27.9542C27.9401 23.7204 27.7186 24.1878 27.3683 24.5238C28.3351 24.8113 29.0424 25.7077 29.0424 26.7667V27.2593C30.323 27.2122 31.0611 26.8494 31.1097 26.825L31.2127 26.7726H31.2236V25.1736C31.2237 24.0862 30.3388 23.2013 29.2515 23.2013Z" fill="#1E3045"/>
</svg>
