<svg width="34" height="34" viewBox="0 0 34 34" fill="none" xmlns="http://www.w3.org/2000/svg">
<g clip-path="url(#clip0_826_1268)">
<path d="M5.5424 0.53125V5.01115C5.5424 5.30453 5.30453 5.5424 5.01115 5.5424H0.53125C0.237867 5.5424 0 5.30453 0 5.01115V0.53125C0 0.237867 0.237867 0 0.53125 0H5.01115C5.3046 0 5.5424 0.237867 5.5424 0.53125ZM4.4799 1.0625H1.0625V4.4799H4.4799V1.0625ZM5.5424 28.9889V33.4688C5.5424 33.7621 5.30453 34 5.01115 34H0.53125C0.237867 34 0 33.7621 0 33.4688V28.9889C0 28.6955 0.237867 28.4576 0.53125 28.4576H5.01115C5.3046 28.4576 5.5424 28.6954 5.5424 28.9889ZM4.4799 29.5201H1.0625V32.9375H4.4799V29.5201ZM34 0.53125V5.01115C34 5.30453 33.7621 5.5424 33.4688 5.5424H28.9889C28.6955 5.5424 28.4576 5.30453 28.4576 5.01115V0.53125C28.4576 0.237867 28.6955 0 28.9889 0H33.4688C33.7621 0 34 0.237867 34 0.53125ZM32.9375 1.0625H29.5201V4.4799H32.9375V1.0625ZM34 28.9889V33.4688C34 33.7621 33.7621 34 33.4688 34H28.9889C28.6955 34 28.4576 33.7621 28.4576 33.4688V28.9889C28.4576 28.6955 28.6955 28.4576 28.9889 28.4576H33.4688C33.7621 28.4576 34 28.6954 34 28.9889ZM32.9375 29.5201H29.5201V32.9375H32.9375V29.5201ZM7.1408 3.30245H9.38075C9.67413 3.30245 9.912 3.06458 9.912 2.7712C9.912 2.47782 9.67413 2.23995 9.38075 2.23995H7.1408C6.84741 2.23995 6.60955 2.47782 6.60955 2.7712C6.60955 3.06458 6.84741 3.30245 7.1408 3.30245ZM11.5104 3.30245H13.7503C14.0437 3.30245 14.2816 3.06458 14.2816 2.7712C14.2816 2.47782 14.0437 2.23995 13.7503 2.23995H11.5104C11.217 2.23995 10.9791 2.47782 10.9791 2.7712C10.9791 3.06458 11.217 3.30245 11.5104 3.30245ZM15.88 3.30245H18.1199C18.4133 3.30245 18.6512 3.06458 18.6512 2.7712C18.6512 2.47782 18.4133 2.23995 18.1199 2.23995H15.88C15.5866 2.23995 15.3487 2.47782 15.3487 2.7712C15.3487 3.06458 15.5866 3.30245 15.88 3.30245ZM20.2497 3.30245H22.4896C22.783 3.30245 23.0209 3.06458 23.0209 2.7712C23.0209 2.47782 22.783 2.23995 22.4896 2.23995H20.2497C19.9563 2.23995 19.7184 2.47782 19.7184 2.7712C19.7184 3.06458 19.9562 3.30245 20.2497 3.30245ZM26.8592 2.23995H24.6193C24.3259 2.23995 24.088 2.47782 24.088 2.7712C24.088 3.06458 24.3259 3.30245 24.6193 3.30245H26.8592C27.1526 3.30245 27.3905 3.06458 27.3905 2.7712C27.3905 2.47782 27.1526 2.23995 26.8592 2.23995ZM9.38081 30.6976H7.14086C6.84748 30.6976 6.60961 30.9354 6.60961 31.2288C6.60961 31.5222 6.84748 31.7601 7.14086 31.7601H9.38081C9.6742 31.7601 9.91206 31.5222 9.91206 31.2288C9.91206 30.9354 9.6742 30.6976 9.38081 30.6976ZM13.7503 30.6976H11.5104C11.217 30.6976 10.9791 30.9354 10.9791 31.2288C10.9791 31.5222 11.217 31.7601 11.5104 31.7601H13.7503C14.0437 31.7601 14.2816 31.5222 14.2816 31.2288C14.2816 30.9354 14.0438 30.6976 13.7503 30.6976ZM18.12 30.6976H15.8801C15.5867 30.6976 15.3488 30.9354 15.3488 31.2288C15.3488 31.5222 15.5867 31.7601 15.8801 31.7601H18.12C18.4134 31.7601 18.6513 31.5222 18.6513 31.2288C18.6513 30.9354 18.4134 30.6976 18.12 30.6976ZM22.4896 30.6976H20.2497C19.9563 30.6976 19.7184 30.9354 19.7184 31.2288C19.7184 31.5222 19.9563 31.7601 20.2497 31.7601H22.4896C22.783 31.7601 23.0209 31.5222 23.0209 31.2288C23.0209 30.9354 22.783 30.6976 22.4896 30.6976ZM26.8592 30.6976H24.6193C24.3259 30.6976 24.088 30.9354 24.088 31.2288C24.088 31.5222 24.3259 31.7601 24.6193 31.7601H26.8592C27.1526 31.7601 27.3905 31.5222 27.3905 31.2288C27.3905 30.9354 27.1526 30.6976 26.8592 30.6976ZM31.2288 9.91206C31.5222 9.91206 31.7601 9.6742 31.7601 9.38081V7.14086C31.7601 6.84748 31.5222 6.60961 31.2288 6.60961C30.9354 6.60961 30.6976 6.84748 30.6976 7.14086V9.38081C30.6976 9.6742 30.9354 9.91206 31.2288 9.91206ZM30.6976 13.7503C30.6976 14.0437 30.9354 14.2816 31.2288 14.2816C31.5222 14.2816 31.7601 14.0437 31.7601 13.7503V11.5104C31.7601 11.217 31.5222 10.9791 31.2288 10.9791C30.9354 10.9791 30.6976 11.217 30.6976 11.5104V13.7503ZM30.6976 18.12C30.6976 18.4134 30.9354 18.6513 31.2288 18.6513C31.5222 18.6513 31.7601 18.4134 31.7601 18.12V15.8801C31.7601 15.5867 31.5222 15.3488 31.2288 15.3488C30.9354 15.3488 30.6976 15.5867 30.6976 15.8801V18.12ZM30.6976 22.4896C30.6976 22.783 30.9354 23.0209 31.2288 23.0209C31.5222 23.0209 31.7601 22.783 31.7601 22.4896V20.2497C31.7601 19.9563 31.5222 19.7184 31.2288 19.7184C30.9354 19.7184 30.6976 19.9563 30.6976 20.2497V22.4896ZM30.6976 26.8592C30.6976 27.1526 30.9354 27.3905 31.2288 27.3905C31.5222 27.3905 31.7601 27.1526 31.7601 26.8592V24.6193C31.7601 24.3259 31.5222 24.088 31.2288 24.088C30.9354 24.088 30.6976 24.3259 30.6976 24.6193V26.8592ZM2.7712 9.91206C3.06458 9.91206 3.30245 9.6742 3.30245 9.38081V7.14086C3.30245 6.84748 3.06458 6.60961 2.7712 6.60961C2.47782 6.60961 2.23995 6.84748 2.23995 7.14086V9.38081C2.23995 9.6742 2.47782 9.91206 2.7712 9.91206ZM2.23995 13.7503C2.23995 14.0437 2.47782 14.2816 2.7712 14.2816C3.06458 14.2816 3.30245 14.0437 3.30245 13.7503V11.5104C3.30245 11.217 3.06458 10.9791 2.7712 10.9791C2.47782 10.9791 2.23995 11.217 2.23995 11.5104V13.7503ZM2.23995 18.12C2.23995 18.4134 2.47782 18.6513 2.7712 18.6513C3.06458 18.6513 3.30245 18.4134 3.30245 18.12V15.8801C3.30245 15.5867 3.06458 15.3488 2.7712 15.3488C2.47782 15.3488 2.23995 15.5867 2.23995 15.8801V18.12ZM2.23995 22.4896C2.23995 22.783 2.47782 23.0209 2.7712 23.0209C3.06458 23.0209 3.30245 22.783 3.30245 22.4896V20.2497C3.30245 19.9563 3.06458 19.7184 2.7712 19.7184C2.47782 19.7184 2.23995 19.9563 2.23995 20.2497V22.4896ZM2.23995 26.8592C2.23995 27.1526 2.47782 27.3905 2.7712 27.3905C3.06458 27.3905 3.30245 27.1526 3.30245 26.8592V24.6193C3.30245 24.3259 3.06458 24.088 2.7712 24.088C2.47782 24.088 2.23995 24.3259 2.23995 24.6193V26.8592Z" fill="#34557B"/>
<path d="M25.3006 9.45054L25.1156 11.0157C25.0812 11.3071 25.2895 11.5712 25.5809 11.6056C25.6021 11.6081 25.6232 11.6093 25.644 11.6093C25.9095 11.6093 26.139 11.4106 26.1709 11.1404L26.5357 8.05415C26.5548 7.89258 26.4987 7.73115 26.3837 7.61613C26.2686 7.50105 26.1072 7.44487 25.9457 7.46419L22.8595 7.82903C22.5681 7.8635 22.3598 8.12759 22.3942 8.41898C22.4287 8.71037 22.6929 8.91882 22.9842 8.88423L24.5494 8.69922L17 16.2486L9.4506 8.69928L11.0158 8.88429C11.3073 8.91856 11.5713 8.71037 11.6057 8.41905C11.6401 8.12766 11.4319 7.86356 11.1405 7.8291L8.05421 7.46433C7.89264 7.4454 7.73121 7.50132 7.61619 7.61626C7.50118 7.73135 7.44513 7.89271 7.46425 8.05428L7.82909 11.1405C7.86103 11.4108 8.09047 11.6095 8.35602 11.6095C8.37681 11.6095 8.39793 11.6083 8.41904 11.6058C8.71043 11.5713 8.91875 11.3072 8.88429 11.0158L8.69928 9.45054L16.2487 16.9999L8.69934 24.5494L8.88435 22.9842C8.91875 22.6928 8.7105 22.4287 8.41911 22.3942C8.12712 22.3596 7.86362 22.5681 7.82916 22.8595L7.46439 25.9457C7.44526 26.1073 7.50131 26.2687 7.61633 26.3837C7.71653 26.4839 7.85187 26.5393 7.99192 26.5393C8.01264 26.5393 8.03349 26.5381 8.05427 26.5357L11.1405 26.1708C11.4319 26.1364 11.6402 25.8723 11.6057 25.5809C11.5713 25.2895 11.307 25.0814 11.0158 25.1156L9.45053 25.3006L17 17.7512L24.5495 25.3006L22.9843 25.1156C22.6925 25.0812 22.4287 25.2895 22.3943 25.5809C22.3599 25.8723 22.5682 26.1364 22.8595 26.1708L25.9458 26.5356C25.9667 26.5381 25.9875 26.5393 26.0082 26.5393C26.1482 26.5393 26.2836 26.4839 26.3838 26.3837C26.4988 26.2686 26.5549 26.1072 26.5357 25.9457L26.1709 22.8594C26.1364 22.568 25.8722 22.36 25.5809 22.3942C25.2895 22.4286 25.0812 22.6927 25.1157 22.9841L25.3007 24.5494L17.7512 16.9999L25.3006 9.45054Z" fill="#BC584C"/>
</g>
<defs>
<clipPath id="clip0_826_1268">
<rect width="34" height="34" fill="white"/>
</clipPath>
</defs>
</svg>
