<svg width="37" height="37" viewBox="0 0 37 37" fill="none" xmlns="http://www.w3.org/2000/svg">
<path d="M34.6108 24.4336L9.16407 28.9206C7.59186 29.1978 6.09264 28.148 5.81543 26.5758L3.01441 10.6906C2.7372 9.11841 3.787 7.61919 5.35914 7.34198L30.8059 2.855C32.3781 2.57779 33.8773 3.6276 34.1545 5.19973L36.9556 21.0849C37.2328 22.6571 36.183 24.1564 34.6108 24.4336Z" fill="#F6C978"/>
<path d="M28.1836 34.1895H2.89062C1.29421 34.1895 0 32.8953 0 31.2988V15.5653C0 13.9689 1.29421 12.6747 2.89062 12.6747H28.1836C29.78 12.6747 31.0742 13.9689 31.0742 15.5653V31.2988C31.0742 32.8953 29.78 34.1895 28.1836 34.1895Z" fill="#44AD8F"/>
<path d="M0 17.5923H31.0742V22.51H0V17.5923Z" fill="#E1D3C8"/>
<path d="M8.60589 29.4172H3.68822C3.08957 29.4172 2.60423 29.9025 2.60423 30.5012C2.60423 31.0998 3.08957 31.5851 3.68822 31.5851H8.60589C9.20454 31.5851 9.68988 31.0998 9.68988 30.5012C9.68988 29.9025 9.20454 29.4172 8.60589 29.4172Z" fill="#E1D3C8"/>
</svg>
