<svg width="32" height="32" viewBox="0 0 32 32" fill="none" xmlns="http://www.w3.org/2000/svg">
<path fill-rule="evenodd" clip-rule="evenodd" d="M16 28.8C19.3948 28.8 22.6505 27.4514 25.051 25.0509C27.4514 22.6505 28.8 19.3947 28.8 16C28.8 12.6052 27.4514 9.34945 25.051 6.94898C22.6505 4.54852 19.3948 3.19995 16 3.19995C12.6052 3.19995 9.34951 4.54852 6.94905 6.94898C4.54858 9.34945 3.20001 12.6052 3.20001 16C3.20001 19.3947 4.54858 22.6505 6.94905 25.0509C9.34951 27.4514 12.6052 28.8 16 28.8ZM11.2 14.4C10.7757 14.4 10.3687 14.5685 10.0686 14.8686C9.76858 15.1686 9.60001 15.5756 9.60001 16C9.60001 16.4243 9.76858 16.8313 10.0686 17.1313C10.3687 17.4314 10.7757 17.6 11.2 17.6H20.8C21.2244 17.6 21.6313 17.4314 21.9314 17.1313C22.2314 16.8313 22.4 16.4243 22.4 16C22.4 15.5756 22.2314 15.1686 21.9314 14.8686C21.6313 14.5685 21.2244 14.4 20.8 14.4H11.2Z" fill="#BBBBBB"/>
</svg>
