<svg width="26" height="26" viewBox="0 0 26 26" fill="none" xmlns="http://www.w3.org/2000/svg">
<path fill-rule="evenodd" clip-rule="evenodd" d="M13 25.8C16.3947 25.8 19.6505 24.4514 22.0509 22.0509C24.4514 19.6505 25.8 16.3947 25.8 13C25.8 9.60518 24.4514 6.34945 22.0509 3.94898C19.6505 1.54852 16.3947 0.199951 13 0.199951C9.60518 0.199951 6.34945 1.54852 3.94898 3.94898C1.54852 6.34945 0.199951 9.60518 0.199951 13C0.199951 16.3947 1.54852 19.6505 3.94898 22.0509C6.34945 24.4514 9.60518 25.8 13 25.8ZM8.19995 11.4C7.7756 11.4 7.36864 11.5685 7.06858 11.8686C6.76852 12.1686 6.59995 12.5756 6.59995 13C6.59995 13.4243 6.76852 13.8313 7.06858 14.1313C7.36864 14.4314 7.7756 14.6 8.19995 14.6H17.8C18.2243 14.6 18.6313 14.4314 18.9313 14.1313C19.2314 13.8313 19.4 13.4243 19.4 13C19.4 12.5756 19.2314 12.1686 18.9313 11.8686C18.6313 11.5685 18.2243 11.4 17.8 11.4H8.19995Z" fill="#1E3045"/>
</svg>
