<svg width="32" height="32" viewBox="0 0 32 32" fill="none" xmlns="http://www.w3.org/2000/svg">
<path fill-rule="evenodd" clip-rule="evenodd" d="M16 28.8C19.3947 28.8 22.6505 27.4514 25.0509 25.0509C27.4514 22.6505 28.8 19.3947 28.8 16C28.8 12.6052 27.4514 9.34945 25.0509 6.94898C22.6505 4.54852 19.3947 3.19995 16 3.19995C12.6052 3.19995 9.34945 4.54852 6.94898 6.94898C4.54852 9.34945 3.19995 12.6052 3.19995 16C3.19995 19.3947 4.54852 22.6505 6.94898 25.0509C9.34945 27.4514 12.6052 28.8 16 28.8ZM11.2 14.4C10.7756 14.4 10.3686 14.5685 10.0686 14.8686C9.76852 15.1686 9.59995 15.5756 9.59995 16C9.59995 16.4243 9.76852 16.8313 10.0686 17.1313C10.3686 17.4314 10.7756 17.6 11.2 17.6H20.8C21.2243 17.6 21.6313 17.4314 21.9313 17.1313C22.2314 16.8313 22.4 16.4243 22.4 16C22.4 15.5756 22.2314 15.1686 21.9313 14.8686C21.6313 14.5685 21.2243 14.4 20.8 14.4H11.2Z" fill="#39241F"/>
</svg>
