<svg width="20" height="20" viewBox="0 0 20 20" fill="none" xmlns="http://www.w3.org/2000/svg">
<g opacity="0.7">
<path d="M7.48912 3.39792C7.48912 1.98206 8.63696 0.834229 10.053 0.834229C11.4689 0.834229 12.6168 1.98206 12.6168 3.39792C12.6168 4.81378 11.4689 5.96157 10.053 5.96157C8.63696 5.96161 7.48912 4.81378 7.48912 3.39792ZM11.2851 7.70821C11.3108 7.14996 11.503 6.63327 11.8121 6.20613C11.5951 6.16069 11.3709 6.13655 11.1408 6.13655H8.96553C8.73609 6.13655 8.51212 6.1605 8.29626 6.20538C8.62528 6.66174 8.82208 7.21909 8.82529 7.82244C9.22524 7.60247 9.68413 7.47723 10.1716 7.47723C10.567 7.47723 10.9434 7.55961 11.2851 7.70821ZM11.719 7.93832C12.4637 8.40532 12.9859 9.19517 13.0814 10.1124C13.3849 10.2542 13.7221 10.3361 14.0793 10.3361C15.3839 10.3361 16.4413 9.27852 16.4413 7.97395C16.4413 6.66924 15.3839 5.61192 14.0793 5.61192C12.7866 5.61195 11.7387 6.65051 11.719 7.93832ZM10.1715 12.7748C11.4759 12.7748 12.5334 11.717 12.5334 10.4128C12.5334 9.10843 11.4759 8.05077 10.1715 8.05077C8.86704 8.05077 7.80908 9.10839 7.80908 10.4128C7.80912 11.717 8.86704 12.7748 10.1715 12.7748ZM11.1735 12.9356H9.16939C7.50181 12.9356 6.14482 14.2925 6.14482 15.9603V18.4116L6.1512 18.45L6.31991 18.5024C7.91142 18.9995 9.29407 19.1657 10.4322 19.1657C12.6547 19.1657 13.9435 18.532 14.0228 18.4914L14.1807 18.4115H14.1975V15.9602C14.1975 14.2925 12.8413 12.9356 11.1735 12.9356ZM15.0818 10.4973H13.0927C13.0711 11.2931 12.7315 12.0098 12.1943 12.525C13.6766 12.9658 14.7612 14.3403 14.7612 15.964V16.7193C16.7247 16.647 17.8564 16.0908 17.931 16.0533L18.0888 15.973H18.1056V13.5213C18.1058 11.854 16.7489 10.4973 15.0818 10.4973ZM6.02697 10.3361C6.48907 10.3361 6.91875 10.2011 7.28314 9.97134C7.39902 9.21618 7.8039 8.55615 8.38203 8.10685C8.38445 8.06253 8.38852 8.01876 8.38852 7.97399C8.38852 6.66928 7.33079 5.61195 6.02697 5.61195C4.72203 5.61195 3.66474 6.66924 3.66474 7.97399C3.66474 9.27878 4.72199 10.3361 6.02697 10.3361ZM8.14825 12.525C7.61358 12.0123 7.27508 11.2995 7.25016 10.5083C7.17663 10.5028 7.10362 10.4973 7.02844 10.4973H5.02456C3.35676 10.4973 2 11.854 2 13.5215V15.973L2.00619 16.0112L2.17513 16.0639C3.4516 16.4631 4.59126 16.6465 5.58109 16.7038V15.9638C5.58128 14.3403 6.66558 12.9656 8.14825 12.525Z" fill="#6D6D6D"/>
</g>
</svg>
