<svg width="32" height="32" viewBox="0 0 32 32" fill="none" xmlns="http://www.w3.org/2000/svg">
<path fill-rule="evenodd" clip-rule="evenodd" d="M16 28.8C19.3948 28.8 22.6505 27.4514 25.051 25.0509C27.4514 22.6505 28.8 19.3947 28.8 16C28.8 12.6052 27.4514 9.34945 25.051 6.94898C22.6505 4.54852 19.3948 3.19995 16 3.19995C12.6052 3.19995 9.3495 4.54852 6.94903 6.94898C4.54856 9.34945 3.2 12.6052 3.2 16C3.2 19.3947 4.54856 22.6505 6.94903 25.0509C9.3495 27.4514 12.6052 28.8 16 28.8ZM17.6 11.2C17.6 10.7756 17.4314 10.3686 17.1314 10.0686C16.8313 9.76852 16.4243 9.59995 16 9.59995C15.5757 9.59995 15.1687 9.76852 14.8686 10.0686C14.5686 10.3686 14.4 10.7756 14.4 11.2V14.4H11.2C10.7757 14.4 10.3687 14.5685 10.0686 14.8686C9.76857 15.1686 9.6 15.5756 9.6 16C9.6 16.4243 9.76857 16.8313 10.0686 17.1313C10.3687 17.4314 10.7757 17.6 11.2 17.6H14.4V20.8C14.4 21.2243 14.5686 21.6313 14.8686 21.9313C15.1687 22.2314 15.5757 22.4 16 22.4C16.4243 22.4 16.8313 22.2314 17.1314 21.9313C17.4314 21.6313 17.6 21.2243 17.6 20.8V17.6H20.8C21.2243 17.6 21.6313 17.4314 21.9314 17.1313C22.2314 16.8313 22.4 16.4243 22.4 16C22.4 15.5756 22.2314 15.1686 21.9314 14.8686C21.6313 14.5685 21.2243 14.4 20.8 14.4H17.6V11.2Z" fill="#1E3045"/>
</svg>
