<svg width="26" height="26" viewBox="0 0 26 26" fill="none" xmlns="http://www.w3.org/2000/svg">
<path fill-rule="evenodd" clip-rule="evenodd" d="M13 25.8002C16.3947 25.8002 19.6505 24.4516 22.0509 22.0512C24.4514 19.6507 25.8 16.395 25.8 13.0002C25.8 9.60542 24.4514 6.34969 22.0509 3.94923C19.6505 1.54876 16.3947 0.200195 13 0.200195C9.60518 0.200195 6.34945 1.54876 3.94898 3.94923C1.54852 6.34969 0.199951 9.60542 0.199951 13.0002C0.199951 16.395 1.54852 19.6507 3.94898 22.0512C6.34945 24.4516 9.60518 25.8002 13 25.8002ZM14.6 8.2002C14.6 7.77585 14.4314 7.36888 14.1313 7.06882C13.8313 6.76877 13.4243 6.6002 13 6.6002C12.5756 6.6002 12.1686 6.76877 11.8686 7.06882C11.5685 7.36888 11.4 7.77585 11.4 8.2002V11.4002H8.19995C7.7756 11.4002 7.36864 11.5688 7.06858 11.8688C6.76852 12.1689 6.59995 12.5758 6.59995 13.0002C6.59995 13.4245 6.76852 13.8315 7.06858 14.1316C7.36864 14.4316 7.7756 14.6002 8.19995 14.6002H11.4V17.8002C11.4 18.2245 11.5685 18.6315 11.8686 18.9316C12.1686 19.2316 12.5756 19.4002 13 19.4002C13.4243 19.4002 13.8313 19.2316 14.1313 18.9316C14.4314 18.6315 14.6 18.2245 14.6 17.8002V14.6002H17.8C18.2243 14.6002 18.6313 14.4316 18.9313 14.1316C19.2314 13.8315 19.4 13.4245 19.4 13.0002C19.4 12.5758 19.2314 12.1689 18.9313 11.8688C18.6313 11.5688 18.2243 11.4002 17.8 11.4002H14.6V8.2002Z" fill="#BBBBBB"/>
</svg>
