<svg width="32" height="32" viewBox="0 0 32 32" fill="none" xmlns="http://www.w3.org/2000/svg">
<path d="M16 0.625C24.2844 0.625 31.375 7.71558 31.375 16C31.375 24.2844 24.2844 31.375 16 31.375C13.0525 31.375 9.93701 30.5125 7.61816 29.0437L0.625 31.375L2.9563 24.3818C1.48755 22.0632 0.625 18.9475 0.625 16C0.625 7.71558 7.71558 0.625 16 0.625Z" fill="#F6C978"/>
<path d="M19.125 22.25V24.75H12.875V22.25H14.125V16H12.875V13.5H17.875V22.25H19.125Z" fill="#39241F"/>
<path d="M17.875 9.125C17.875 10.1606 17.0356 11 16 11C14.9646 11 14.125 10.1606 14.125 9.125C14.125 8.0896 14.9646 7.25 16 7.25C17.0356 7.25 17.875 8.0896 17.875 9.125Z" fill="#39241F"/>
<path d="M25.75 8.5C25.75 8.84497 26.03 9.125 26.375 9.125C26.72 9.125 27 8.84497 27 8.5C27 8.15503 26.72 7.875 26.375 7.875C26.03 7.875 25.75 8.15503 25.75 8.5Z" fill="#39241F"/>
<path d="M28.2501 16C28.2501 16.8005 28.1698 17.5996 28.0116 18.375C27.9425 18.7131 28.1608 19.0432 28.4989 19.1123C28.5411 19.1211 28.5831 19.1252 28.6246 19.1252C28.9154 19.1252 29.1759 18.9209 29.2365 18.625C29.4115 17.7673 29.5001 16.8842 29.5001 16C29.5001 14.032 29.0734 12.1382 28.2313 10.3711C28.0829 10.0595 27.7101 9.92722 27.3983 10.0757C27.0866 10.2241 26.9545 10.5971 27.1029 10.9089C27.8641 12.5066 28.2501 14.2195 28.2501 16Z" fill="#39241F"/>
<path d="M19.125 21.625H18.5V13.5C18.5 13.1548 18.2202 12.875 17.875 12.875H12.875C12.5298 12.875 12.25 13.1548 12.25 13.5V16C12.25 16.3452 12.5298 16.625 12.875 16.625H13.5V21.625H12.875C12.5298 21.625 12.25 21.9048 12.25 22.25V24.75C12.25 25.0952 12.5298 25.375 12.875 25.375H19.125C19.4702 25.375 19.75 25.0952 19.75 24.75V22.25C19.75 21.9048 19.4702 21.625 19.125 21.625ZM18.5 24.125H13.5V22.875H14.125C14.4702 22.875 14.75 22.5952 14.75 22.25V16C14.75 15.6548 14.4702 15.375 14.125 15.375H13.5V14.125H17.25V22.25C17.25 22.5952 17.53 22.875 17.875 22.875H18.5V24.125Z" fill="#39241F"/>
<path d="M16 11.625C17.3784 11.625 18.5 10.5034 18.5 9.125C18.5 7.74658 17.3784 6.625 16 6.625C14.6216 6.625 13.5 7.74658 13.5 9.125C13.5 10.5034 14.6216 11.625 16 11.625ZM16 7.875C16.6892 7.875 17.25 8.43579 17.25 9.125C17.25 9.81421 16.6892 10.375 16 10.375C15.3108 10.375 14.75 9.81421 14.75 9.125C14.75 8.43579 15.3108 7.875 16 7.875Z" fill="#39241F"/>
<path d="M16 0.00012207C7.37649 0.00012207 2.7255e-05 7.36267 2.7255e-05 16.0001C2.7255e-05 18.9506 0.845486 22.0883 2.27102 24.4615L0.0320097 31.1776C-0.0426974 31.402 0.0156523 31.6498 0.183133 31.817C0.351346 31.9852 0.599392 32.0426 0.822781 31.9679L7.53885 29.7291C9.91189 31.1549 13.0496 32.0001 16 32.0001C24.6258 32.0001 32 24.6366 32 16.0001C32 7.37439 24.6367 0.00012207 16 0.00012207V0.00012207ZM16 30.7501C13.1697 30.7501 10.1614 29.9149 7.95266 28.516C7.79617 28.4169 7.6011 28.3907 7.42044 28.451L1.61331 30.3868L3.5491 24.5797C3.60867 24.4015 3.58474 24.2062 3.48416 24.0475C2.08523 21.839 1.25003 18.8304 1.25003 16.0001C1.25003 8.00476 8.00467 1.25012 16 1.25012C23.9954 1.25012 30.75 8.00476 30.75 16.0001C30.75 23.9955 23.9954 30.7501 16 30.7501Z" fill="#39241F"/>
</svg>
