<svg width="48" height="32" viewBox="0 0 48 32" fill="none" xmlns="http://www.w3.org/2000/svg">
<path d="M3.07889 25.0984L16.1078 3.92627L27.1824 25.0984H3.07889Z" fill="#1E3045"/>
<path d="M16.1078 3.92627L34.6741 11.7437L42.1657 25.0984H27.1824L16.1078 3.92627Z" fill="#BC584C"/>
<path d="M17.8064 5.95272L34.9831 13.1297L34.1146 11.5784L17.0465 4.4751L17.8064 5.95272Z" fill="white"/>
<path d="M7.03853 25.0984C7.03853 25.0984 13.8139 19.8452 15.6151 12.1613C15.6151 12.1613 17.2435 20.4121 23.6488 25.0984H27.1825L16.1078 3.92627L3.07889 25.0984H7.03853Z" fill="#BC584C"/>
<path d="M17.0465 5.95272L4.98319 25.0984H3.07889L16.1078 3.92627L17.0465 5.95272Z" fill="white"/>
<path d="M27.2282 6.21311C27.1473 6.21311 27.065 6.19753 26.9855 6.16442L25.699 5.63003C25.3761 5.49597 25.223 5.1253 25.3571 4.80238C25.4913 4.47946 25.862 4.32635 26.1848 4.46042L27.4713 4.99489C27.7942 5.12896 27.9473 5.49963 27.8133 5.82255C27.7121 6.0661 27.4765 6.21311 27.2282 6.21311Z" fill="#1E3045"/>
<path d="M34.363 9.17649C34.2819 9.17649 34.1996 9.16092 34.1203 9.1279L29.3246 7.13597C29.0017 7.00181 28.8486 6.63114 28.9827 6.30832C29.117 5.9854 29.4879 5.8321 29.8104 5.96635L34.6061 7.95828C34.9289 8.09234 35.0821 8.46302 34.9479 8.78593C34.8468 9.02948 34.6112 9.17649 34.363 9.17649Z" fill="#1E3045"/>
<path d="M44.9905 21.3164C44.7103 21.1071 44.3134 21.1645 44.1042 21.4447L42.2416 23.939L35.2266 11.4341C35.1577 11.3112 35.0498 11.2149 34.9201 11.1602L17.0259 3.62585L18.6409 0.961821C18.8223 0.662732 18.7268 0.27339 18.4278 0.092042C18.1289 -0.0893065 17.7393 0.00619962 17.558 0.305195L16.1603 2.61056L15.0355 0.351165C14.8798 0.0381911 14.4995 -0.0894937 14.1864 0.0666179C13.8733 0.222448 13.7458 0.602688 13.9018 0.915756L15.3835 3.89201L15.2394 4.12974L3.02834 23.9726L1.14064 21.4447C0.931523 21.1646 0.534677 21.1069 0.254351 21.3164C-0.0257868 21.5256 -0.0833905 21.9224 0.125916 22.2027L2.57154 25.4775C2.57163 25.4776 2.57173 25.4776 2.57173 25.4777C2.57576 25.4833 2.58064 25.488 2.58486 25.4933C2.59772 25.5093 2.61066 25.5251 2.62473 25.5396C2.63055 25.5455 2.63684 25.5507 2.64284 25.5564C2.65644 25.5694 2.67014 25.5821 2.68459 25.5936C2.69125 25.5989 2.69829 25.6036 2.70532 25.6087C2.71987 25.6194 2.73469 25.6297 2.74998 25.639C2.75786 25.6438 2.76593 25.6481 2.774 25.6525C2.78901 25.6608 2.80411 25.6685 2.81969 25.6755C2.82869 25.6795 2.83779 25.6833 2.84699 25.6869C2.86228 25.6929 2.87767 25.6982 2.89324 25.703C2.90309 25.706 2.91294 25.7091 2.92289 25.7117C2.9393 25.7158 2.95582 25.7189 2.97242 25.7217C2.9818 25.7233 2.9909 25.7253 3.00038 25.7265C3.02552 25.7296 3.05076 25.7315 3.07618 25.7317C3.07712 25.7317 3.07806 25.7319 3.0789 25.7319H7.03855H23.6488H27.1826H42.1658C42.1669 25.7319 42.1678 25.7317 42.1689 25.7317C42.1939 25.7315 42.2187 25.7297 42.2434 25.7267C42.2528 25.7255 42.2619 25.7235 42.2712 25.7219C42.2876 25.7192 42.3039 25.7161 42.32 25.7122C42.33 25.7097 42.3397 25.7066 42.3494 25.7036C42.3648 25.699 42.3799 25.6939 42.3949 25.6882C42.4041 25.6846 42.413 25.6807 42.4221 25.6767C42.4373 25.6701 42.4523 25.6627 42.467 25.6548C42.4752 25.6504 42.4831 25.6459 42.491 25.6412C42.5058 25.6322 42.5203 25.6226 42.5344 25.6124C42.5417 25.6072 42.5489 25.6022 42.5559 25.5967C42.5696 25.586 42.5826 25.5744 42.5955 25.5624C42.6023 25.5563 42.6092 25.5503 42.6157 25.5438C42.6276 25.5317 42.6387 25.5185 42.6498 25.5054C42.656 25.4979 42.6628 25.4909 42.6687 25.4831C42.6702 25.4811 42.6718 25.4795 42.6733 25.4775L45.1188 22.2027C45.3281 21.9224 45.2706 21.5257 44.9905 21.3164ZM8.73157 24.4654C10.5699 22.7465 13.8759 19.1836 15.5915 14.4513C16.4263 16.98 18.2627 21.2169 21.8707 24.4654H8.73157ZM23.858 24.4654C17.871 19.9645 16.2521 12.1179 16.2364 12.0388C16.1787 11.7462 15.9246 11.5334 15.6264 11.5283C15.3315 11.5217 15.0667 11.7263 14.9987 12.0169C13.4254 18.7282 7.84472 23.6107 6.81404 24.4654H4.21231L16.0632 5.20742L26.1367 24.4654H23.858ZM28.4458 24.4654L30.1356 22.2027C30.3448 21.9224 30.2874 21.5256 30.0072 21.3164C29.727 21.1071 29.3302 21.1645 29.1209 21.4447L27.2774 23.9133L17.4854 5.19363L34.2282 12.2432L41.0845 24.4654H28.4458Z" fill="#1E3045"/>
<circle cx="39.7613" cy="23.868" r="7.70877" fill="#E1D3C8" stroke="#1E3045" stroke-width="0.5"/>
<path d="M39.5179 20.7949C39.9879 21.0896 40.3174 21.5881 40.3777 22.1669C40.5692 22.2564 40.782 22.3081 41.0074 22.3081C41.8308 22.3081 42.4981 21.6407 42.4981 20.8173C42.4981 19.9939 41.8308 19.3267 41.0074 19.3267C40.1916 19.3267 39.5303 19.9821 39.5179 20.7949ZM38.5413 23.8472C39.3644 23.8472 40.0318 23.1796 40.0318 22.3565C40.0318 21.5333 39.3644 20.8658 38.5413 20.8658C37.718 20.8658 37.0503 21.5333 37.0503 22.3565C37.0503 23.1796 37.718 23.8472 38.5413 23.8472ZM39.1736 23.9486H37.9088C36.8564 23.9486 36 24.805 36 25.8575V27.4045L36.004 27.4287L36.1105 27.4618C37.1149 27.7755 37.9875 27.8805 38.7058 27.8805C40.1084 27.8805 40.9217 27.4805 40.9718 27.4549L41.0714 27.4045H41.082V25.8575C41.082 24.805 40.2261 23.9486 39.1736 23.9486ZM41.6401 22.4098H40.3848C40.3712 22.9121 40.1568 23.3644 39.8178 23.6895C40.7533 23.9677 41.4378 24.8351 41.4378 25.8599V26.3365C42.677 26.2909 43.3912 25.9399 43.4382 25.9162L43.5379 25.8656H43.5484V24.3183C43.5486 23.266 42.6923 22.4098 41.6401 22.4098Z" fill="#1E3045"/>
</svg>
