<svg width="48" height="32" viewBox="0 0 48 32" fill="none" xmlns="http://www.w3.org/2000/svg">
<path d="M3.07886 25.0984L16.1078 3.92627L27.1824 25.0984H3.07886Z" fill="#1E3045"/>
<path d="M16.1078 3.92627L34.6741 11.7437L42.1657 25.0984H27.1823L16.1078 3.92627Z" fill="#BC584C"/>
<path d="M17.8064 5.95272L34.9831 13.1297L34.1146 11.5784L17.0465 4.4751L17.8064 5.95272Z" fill="white"/>
<path d="M7.0385 25.0984C7.0385 25.0984 13.8139 19.8452 15.6151 12.1613C15.6151 12.1613 17.2435 20.4121 23.6488 25.0984H27.1824L16.1078 3.92627L3.07886 25.0984H7.0385Z" fill="#BC584C"/>
<path d="M17.0464 5.95272L4.98316 25.0984H3.07886L16.1078 3.92627L17.0464 5.95272Z" fill="white"/>
<path d="M27.2282 6.21311C27.1472 6.21311 27.065 6.19753 26.9855 6.16442L25.699 5.63003C25.3761 5.49597 25.223 5.1253 25.357 4.80238C25.4913 4.47946 25.8619 4.32635 26.1848 4.46042L27.4713 4.99489C27.7942 5.12896 27.9473 5.49963 27.8132 5.82255C27.712 6.0661 27.4764 6.21311 27.2282 6.21311Z" fill="#1E3045"/>
<path d="M34.3629 9.17649C34.2819 9.17649 34.1996 9.16092 34.1202 9.1279L29.3246 7.13597C29.0016 7.00181 28.8485 6.63114 28.9827 6.30832C29.1169 5.9854 29.4878 5.8321 29.8103 5.96635L34.606 7.95828C34.9288 8.09234 35.082 8.46302 34.9479 8.78593C34.8467 9.02948 34.6112 9.17649 34.3629 9.17649Z" fill="#1E3045"/>
<path d="M44.9905 21.3164C44.7103 21.1071 44.3134 21.1645 44.1042 21.4447L42.2416 23.939L35.2266 11.4341C35.1577 11.3112 35.0498 11.2149 34.9201 11.1602L17.0259 3.62585L18.6409 0.961821C18.8223 0.662732 18.7268 0.27339 18.4278 0.092042C18.1289 -0.0893065 17.7393 0.00619962 17.558 0.305195L16.1603 2.61056L15.0355 0.351165C14.8798 0.0381911 14.4995 -0.0894937 14.1864 0.0666179C13.8733 0.222448 13.7458 0.602688 13.9018 0.915756L15.3835 3.89201L15.2394 4.12974L3.02834 23.9726L1.14064 21.4447C0.931523 21.1646 0.534677 21.1069 0.254351 21.3164C-0.0257868 21.5256 -0.0833905 21.9224 0.125916 22.2027L2.57154 25.4775C2.57163 25.4776 2.57173 25.4776 2.57173 25.4777C2.57576 25.4833 2.58064 25.488 2.58486 25.4933C2.59772 25.5093 2.61066 25.5251 2.62473 25.5396C2.63055 25.5455 2.63684 25.5507 2.64284 25.5564C2.65644 25.5694 2.67014 25.5821 2.68459 25.5936C2.69125 25.5989 2.69829 25.6036 2.70532 25.6087C2.71987 25.6194 2.73469 25.6297 2.74998 25.639C2.75786 25.6438 2.76593 25.6481 2.774 25.6525C2.78901 25.6608 2.80411 25.6685 2.81969 25.6755C2.82869 25.6795 2.83779 25.6833 2.84699 25.6869C2.86228 25.6929 2.87767 25.6982 2.89324 25.703C2.90309 25.706 2.91294 25.7091 2.92289 25.7117C2.9393 25.7158 2.95582 25.7189 2.97242 25.7217C2.9818 25.7233 2.9909 25.7253 3.00038 25.7265C3.02552 25.7296 3.05076 25.7315 3.07618 25.7317C3.07712 25.7317 3.07806 25.7319 3.0789 25.7319H7.03855H23.6488H27.1826H42.1658C42.1669 25.7319 42.1678 25.7317 42.1689 25.7317C42.1939 25.7315 42.2187 25.7297 42.2434 25.7267C42.2528 25.7255 42.2619 25.7235 42.2712 25.7219C42.2876 25.7192 42.3039 25.7161 42.32 25.7122C42.33 25.7097 42.3397 25.7066 42.3494 25.7036C42.3648 25.699 42.3799 25.6939 42.3949 25.6882C42.4041 25.6846 42.413 25.6807 42.4221 25.6767C42.4373 25.6701 42.4523 25.6627 42.467 25.6548C42.4752 25.6504 42.4831 25.6459 42.491 25.6412C42.5058 25.6322 42.5203 25.6226 42.5344 25.6124C42.5417 25.6072 42.5489 25.6022 42.5559 25.5967C42.5696 25.586 42.5826 25.5744 42.5955 25.5624C42.6023 25.5563 42.6092 25.5503 42.6157 25.5438C42.6276 25.5317 42.6387 25.5185 42.6498 25.5054C42.656 25.4979 42.6628 25.4909 42.6687 25.4831C42.6702 25.4811 42.6718 25.4795 42.6733 25.4775L45.1188 22.2027C45.3281 21.9224 45.2706 21.5257 44.9905 21.3164ZM8.73157 24.4654C10.5699 22.7465 13.8759 19.1836 15.5915 14.4513C16.4263 16.98 18.2627 21.2169 21.8707 24.4654H8.73157ZM23.858 24.4654C17.871 19.9645 16.2521 12.1179 16.2364 12.0388C16.1787 11.7462 15.9246 11.5334 15.6264 11.5283C15.3315 11.5217 15.0667 11.7263 14.9987 12.0169C13.4254 18.7282 7.84472 23.6107 6.81404 24.4654H4.21231L16.0632 5.20742L26.1367 24.4654H23.858ZM28.4458 24.4654L30.1356 22.2027C30.3448 21.9224 30.2874 21.5256 30.0072 21.3164C29.727 21.1071 29.3302 21.1645 29.1209 21.4447L27.2774 23.9133L17.4854 5.19363L34.2282 12.2432L41.0845 24.4654H28.4458Z" fill="#1E3045"/>
<circle cx="39.4588" cy="23.4588" r="7.70877" fill="#E1D3C8" stroke="#1E3045" stroke-width="0.5"/>
<path d="M38.119 19.8688C38.119 19.09 38.7503 18.4587 39.5291 18.4587C40.3078 18.4587 40.9392 19.09 40.9392 19.8688C40.9392 20.6475 40.3078 21.2788 39.5291 21.2788C38.7503 21.2788 38.119 20.6475 38.119 19.8688ZM40.2068 22.2394C40.2209 21.9324 40.3266 21.6482 40.4966 21.4133C40.3773 21.3883 40.254 21.375 40.1274 21.375H38.931C38.8048 21.375 38.6816 21.3882 38.5629 21.4129C38.7439 21.6639 38.8521 21.9704 38.8539 22.3023C39.0739 22.1813 39.3262 22.1124 39.5943 22.1124C39.8118 22.1124 40.0188 22.1577 40.2068 22.2394ZM40.4455 22.366C40.855 22.6228 41.1422 23.0573 41.1948 23.5618C41.3617 23.6398 41.5471 23.6848 41.7436 23.6848C42.4611 23.6848 43.0427 23.1031 43.0427 22.3856C43.0427 21.668 42.4611 21.0865 41.7436 21.0865C41.0326 21.0865 40.4562 21.6577 40.4455 22.366ZM39.5943 25.0261C40.3117 25.0261 40.8934 24.4443 40.8934 23.727C40.8934 23.0096 40.3117 22.4278 39.5943 22.4278C38.8768 22.4278 38.295 23.0095 38.295 23.727C38.295 24.4443 38.8768 25.0261 39.5943 25.0261ZM40.1454 25.1145H39.0431C38.126 25.1145 37.3796 25.8608 37.3796 26.7781V28.1263L37.3831 28.1474L37.4759 28.1762C38.3513 28.4496 39.1117 28.5411 39.7377 28.5411C40.9601 28.5411 41.6689 28.1925 41.7125 28.1702L41.7994 28.1263H41.8086V26.7781C41.8086 25.8608 41.0627 25.1145 40.1454 25.1145ZM42.295 23.7734H41.201C41.1891 24.2111 41.0023 24.6053 40.7068 24.8887C41.5221 25.1311 42.1186 25.8871 42.1186 26.7801V27.1955C43.1986 27.1558 43.821 26.8499 43.862 26.8292L43.9488 26.7851H43.9581V25.4366C43.9582 24.5196 43.2119 23.7734 42.295 23.7734ZM37.3148 23.6848C37.569 23.6848 37.8053 23.6105 38.0057 23.4842C38.0694 23.0688 38.2921 22.7058 38.6101 22.4587C38.6114 22.4343 38.6137 22.4102 38.6137 22.3856C38.6137 21.668 38.0319 21.0865 37.3148 21.0865C36.5971 21.0865 36.0156 21.668 36.0156 22.3856C36.0156 23.1032 36.5971 23.6848 37.3148 23.6848ZM38.4815 24.8887C38.1874 24.6067 38.0013 24.2147 37.9876 23.7795C37.9471 23.7765 37.907 23.7734 37.8656 23.7734H36.7635C35.8462 23.7734 35.1 24.5196 35.1 25.4368V26.7851L35.1034 26.8061L35.1963 26.8351C35.8984 27.0546 36.5252 27.1555 37.0696 27.187V26.78C37.0697 25.8871 37.666 25.131 38.4815 24.8887Z" fill="#1E3045"/>
</svg>
