<svg width="14" height="16" viewBox="0 0 14 16" fill="none" xmlns="http://www.w3.org/2000/svg">
<path d="M6.52459 2.72305C7.39623 3.26965 8.00747 4.19418 8.11927 5.26783C8.47443 5.43382 8.86911 5.52959 9.28725 5.52959C10.8143 5.52959 12.052 4.29174 12.052 2.76475C12.052 1.23759 10.8143 0 9.28725 0C7.77419 4.36694e-05 6.54756 1.21567 6.52459 2.72305ZM4.71323 8.38417C6.24 8.38417 7.47781 7.14596 7.47781 5.61941C7.47781 4.09265 6.24 2.85466 4.71323 2.85466C3.18633 2.85466 1.948 4.0926 1.948 5.61941C1.94805 7.14596 3.18633 8.38417 4.71323 8.38417ZM5.88602 8.57234H3.54023C1.58834 8.57234 0 10.1605 0 12.1127V14.9819L0.00746784 15.0268L0.20494 15.0882C2.06779 15.67 3.68617 15.8646 5.01835 15.8646C7.61978 15.8646 9.12825 15.1228 9.22118 15.0754L9.40594 14.9819H9.42555V12.1127C9.42559 10.1605 7.83817 8.57234 5.88602 8.57234ZM10.4606 5.71828H8.13246C8.10717 6.64984 7.70961 7.48873 7.08085 8.09171C8.81592 8.60767 10.0854 10.2165 10.0854 12.1171V13.0011C12.3837 12.9165 13.7083 12.2655 13.7956 12.2216L13.9804 12.1276H14V9.2579C14.0003 7.30627 12.4121 5.71828 10.4606 5.71828Z" fill="#6D6D6D"/>
</svg>
