<svg width="20" height="20" viewBox="0 0 20 20" fill="none" xmlns="http://www.w3.org/2000/svg">
<g opacity="0.7">
<path d="M9.52459 4.72305C10.3962 5.26965 11.0075 6.19418 11.1193 7.26783C11.4744 7.43382 11.8691 7.52959 12.2872 7.52959C13.8143 7.52959 15.052 6.29174 15.052 4.76475C15.052 3.23759 13.8143 2 12.2872 2C10.7742 2.00004 9.54756 3.21567 9.52459 4.72305ZM7.71323 10.3842C9.24 10.3842 10.4778 9.14596 10.4778 7.61941C10.4778 6.09265 9.24 4.85466 7.71323 4.85466C6.18633 4.85466 4.948 6.0926 4.948 7.61941C4.94805 9.14596 6.18633 10.3842 7.71323 10.3842ZM8.88602 10.5723H6.54023C4.58834 10.5723 3 12.1605 3 14.1127V16.9819L3.00747 17.0268L3.20494 17.0882C5.06779 17.67 6.68617 17.8646 8.01835 17.8646C10.6198 17.8646 12.1282 17.1228 12.2212 17.0754L12.4059 16.9819H12.4255V14.1127C12.4256 12.1605 10.8382 10.5723 8.88602 10.5723ZM13.4606 7.71828H11.1325C11.1072 8.64984 10.7096 9.48873 10.0809 10.0917C11.8159 10.6077 13.0854 12.2165 13.0854 14.1171V15.0011C15.3837 14.9165 16.7083 14.2655 16.7956 14.2216L16.9804 14.1276H17V11.2579C17.0003 9.30627 15.4121 7.71828 13.4606 7.71828Z" fill="#6D6D6D"/>
</g>
</svg>
