<svg width="32" height="33" viewBox="0 0 32 33" fill="none" xmlns="http://www.w3.org/2000/svg">
<path d="M16 1.125C7.50125 1.125 0.625 8.0025 0.625 16.5C0.625 24.9835 7.48975 31.875 16 31.875C24.5485 31.875 31.375 24.9427 31.375 16.5C31.375 8.00125 24.4975 1.125 16 1.125Z" fill="#F6C978"/>
<path d="M25.3323 28.7231V28.7237C22.7455 30.7012 19.5111 31.875 15.9998 31.875C12.4892 31.875 9.25484 30.7012 6.66797 28.7237C7.12109 23.9687 11.1261 20.25 15.9998 20.25C20.8736 20.25 24.878 23.9681 25.3323 28.7231Z" fill="#39241F"/>
<path d="M16 17.75C18.7614 17.75 21 15.5114 21 12.75C21 9.98858 18.7614 7.75 16 7.75C13.2386 7.75 11 9.98858 11 12.75C11 15.5114 13.2386 17.75 16 17.75Z" fill="#39241F"/>
<path d="M10.375 12.75C10.375 15.8516 12.8984 18.375 16 18.375C19.1016 18.375 21.625 15.8516 21.625 12.75C21.625 9.64838 19.1016 7.125 16 7.125C12.8984 7.125 10.375 9.64838 10.375 12.75ZM20.375 12.75C20.375 15.1624 18.4124 17.125 16 17.125C13.5876 17.125 11.625 15.1624 11.625 12.75C11.625 10.3376 13.5876 8.375 16 8.375C18.4124 8.375 20.375 10.3376 20.375 12.75Z" fill="#39241F"/>
<path d="M27.5 6.875C27.8452 6.875 28.125 6.59518 28.125 6.25C28.125 5.90482 27.8452 5.625 27.5 5.625C27.1548 5.625 26.875 5.90482 26.875 6.25C26.875 6.59518 27.1548 6.875 27.5 6.875Z" fill="#39241F"/>
<path d="M16 32.5C24.869 32.5 32 25.3171 32 16.5C32 13.5644 31.1996 10.6947 29.6856 8.20113C29.5064 7.90613 29.1221 7.81219 28.8269 7.99125C28.5319 8.17044 28.4379 8.55481 28.6171 8.84988C30.0124 11.1479 30.75 13.7933 30.75 16.5C30.75 20.7768 28.9518 24.7435 25.7827 27.5427C24.818 22.9921 20.783 19.625 16 19.625C11.217 19.625 7.18156 22.9925 6.21781 27.5432C3.04838 24.7437 1.25 20.7768 1.25 16.5C1.25 8.36681 7.86681 1.75 16 1.75C19.3118 1.75 22.4394 2.81969 25.0448 4.8435C25.3173 5.05525 25.71 5.00588 25.9217 4.73331C26.1335 4.46075 26.0842 4.06806 25.8116 3.85631C22.9849 1.66056 19.5921 0.5 16 0.5C11.7227 0.5 7.70387 2.1635 4.68356 5.184C1.66331 8.20438 0 12.2231 0 16.5C0 25.3393 7.15369 32.5 16 32.5ZM16 20.875C20.4186 20.875 24.0863 24.1025 24.6701 28.4379C22.1417 30.2787 19.1518 31.25 16 31.25C12.8485 31.25 9.859 30.2786 7.33056 28.4377C7.91356 24.1024 11.5809 20.875 16 20.875Z" fill="#39241F"/>
</svg>
