<svg width="82" height="82" viewBox="0 0 82 82" fill="none" xmlns="http://www.w3.org/2000/svg">
<path d="M41 1.60156C62.2287 1.60156 80.3984 19.7713 80.3984 41C80.3984 62.2287 62.2287 80.3984 41 80.3984C19.7713 80.3984 1.60156 62.2287 1.60156 41C1.60156 19.7713 19.7713 1.60156 41 1.60156Z" fill="#44AD8F"/>
<path d="M58.811 29.5953C60.688 31.4707 60.688 34.5137 58.811 36.3891L39.5922 55.6079C38.6537 56.5464 37.4253 57.0156 36.1953 57.0156C34.9653 57.0156 33.7369 56.5464 32.7984 55.6079L23.189 45.9985C21.312 44.123 21.312 41.0801 23.189 39.2046C25.0661 37.3276 28.1058 37.3276 29.9829 39.2046L36.1953 45.4171L52.0171 29.5953C53.8942 27.7182 56.9339 27.7182 58.811 29.5953Z" fill="white"/>
<path d="M78.6968 25.2506C76.5907 20.3983 73.5948 16.01 69.7924 12.2076C65.99 8.40516 61.6017 5.40928 56.7494 3.30322C51.6999 1.11132 46.4009 0 41 0C35.5991 0 30.3001 1.11132 25.2506 3.30322C20.3983 5.40928 16.01 8.40516 12.2076 12.2076C8.40516 16.01 5.40928 20.3983 3.30322 25.2506C1.11132 30.3001 0 35.5991 0 41C0 46.4009 1.11132 51.6999 3.30322 56.7494C5.40928 61.6017 8.40516 65.99 12.2076 69.7924C16.01 73.5948 20.3983 76.5907 25.2506 78.6968C30.3001 80.8887 35.5991 82 41 82C46.4009 82 51.6999 80.8887 56.7494 78.6968C61.6017 76.5907 65.99 73.5948 69.7924 69.7924C73.5948 65.99 76.5907 61.6017 78.6968 56.7494C80.8887 51.6999 82 46.4009 82 41C82 35.5991 80.8887 30.3001 78.6968 25.2506ZM41 78.7969C20.512 78.7969 3.20312 61.488 3.20312 41C3.20312 20.512 20.512 3.20312 41 3.20312C61.488 3.20312 78.7969 20.512 78.7969 41C78.7969 61.488 61.488 78.7969 41 78.7969Z" fill="#39241F"/>
<path d="M72.3866 27.8358C70.6457 23.7909 68.1644 20.1412 65.0116 16.9886C61.8587 13.8357 58.2093 11.3544 54.1644 9.61354C49.9604 7.80409 45.5313 6.88672 41 6.88672C34.8401 6.88672 28.4189 8.99021 22.4307 12.9696C21.694 13.4592 21.4936 14.4533 21.9832 15.1899C22.4728 15.9266 23.4669 16.1268 24.2035 15.6373C29.6648 12.0082 35.4728 10.0898 41 10.0898C57.7551 10.0898 71.9102 24.2449 71.9102 41C71.9102 57.7551 57.7551 71.9102 41 71.9102C24.2449 71.9102 10.0898 57.7551 10.0898 41C10.0898 35.474 12.0077 29.6656 15.6359 24.2033C16.1253 23.4664 15.9248 22.4725 15.1881 21.983C14.4511 21.4936 13.4573 21.6943 12.9679 22.431C8.98957 28.4204 6.88672 34.8414 6.88672 41C6.88672 45.5313 7.80409 49.9604 9.61338 54.1642C11.3543 58.2091 13.8356 61.8587 16.9884 65.0114C20.1412 68.1643 23.7907 70.6456 27.8356 72.3865C32.0396 74.1959 36.4687 75.1133 41 75.1133C45.5313 75.1133 49.9604 74.1959 54.1642 72.3866C58.2091 70.6457 61.8587 68.1644 65.0114 65.0116C68.1643 61.8587 70.6456 58.2093 72.3865 54.1644C74.1959 49.9604 75.1133 45.5313 75.1133 41C75.1133 36.4687 74.1959 32.0396 72.3866 27.8358Z" fill="#39241F"/>
<path d="M22.0566 47.1309L31.6659 56.7403C32.8762 57.9506 34.4848 58.6172 36.1953 58.6172C37.9058 58.6172 39.5144 57.9506 40.7247 56.7403L59.943 37.522C61.1536 36.3124 61.8203 34.7038 61.8203 32.9922C61.8203 31.2806 61.1536 29.672 59.9434 28.4628C58.7331 27.2525 57.1247 26.5859 55.4141 26.5859C53.7034 26.5859 52.095 27.2525 50.8847 28.4628L36.1953 43.1522L31.1153 38.0722C29.905 36.8619 28.2966 36.1953 26.5859 36.1953C24.8753 36.1953 23.2669 36.8619 22.057 38.0717C20.8464 39.2814 20.1797 40.89 20.1797 42.6016C20.1797 44.3132 20.8464 45.9218 22.0566 47.1309ZM24.3215 40.3371C24.9269 39.7319 25.731 39.3984 26.5859 39.3984C27.4409 39.3984 28.245 39.7319 28.8504 40.3371L36.1953 47.682L53.1496 30.7277C53.755 30.1225 54.5591 29.7891 55.4141 29.7891C56.269 29.7891 57.0731 30.1225 57.679 30.7282C58.2839 31.3328 58.6172 32.1368 58.6172 32.9922C58.6172 33.8476 58.2839 34.6516 57.6785 35.2566L38.4598 54.4754C37.8544 55.0806 37.0502 55.4141 36.1953 55.4141C35.3404 55.4141 34.5363 55.0806 33.9309 54.4754L24.321 44.8655C23.7161 44.2609 23.3828 43.457 23.3828 42.6016C23.3828 41.7462 23.7161 40.9422 24.3215 40.3371Z" fill="#39241F"/>
<path d="M18.418 16.8164C17.5339 16.8164 16.8164 17.5339 16.8164 18.418C16.8164 19.302 17.5339 20.0195 18.418 20.0195C19.302 20.0195 20.0195 19.302 20.0195 18.418C20.0195 17.5339 19.302 16.8164 18.418 16.8164Z" fill="#39241F"/>
</svg>
