<svg width="11" height="18" viewBox="0 0 11 18" fill="none" xmlns="http://www.w3.org/2000/svg">
<path d="M6.00024 16.9509C6.00024 17.0901 6.11304 17.2029 6.25224 17.2029H8.26821C8.40742 17.2029 8.52021 17.0901 8.52021 16.9509V16.2285H6.00024V16.9509Z" fill="#6D6D6D"/>
<path d="M6.33494 3.69604H4.15097C3.87306 3.69604 3.64697 3.92214 3.64697 4.20004C3.64697 4.47794 3.87306 4.70403 4.15097 4.70403H6.33494C6.61284 4.70403 6.83893 4.47794 6.83893 4.20004C6.83893 3.92214 6.61284 3.69604 6.33494 3.69604Z" fill="#6D6D6D"/>
<path d="M8.9739 0H1.51198C0.678274 0 0 0.678274 0 1.51198V13.7086C0 14.5423 0.678274 15.2206 1.51198 15.2206H8.97387C9.80754 15.2206 10.4858 14.5423 10.4858 13.7086V1.51198C10.4858 0.678274 9.80758 0 8.9739 0ZM3.22835 13.2046C2.95075 13.2046 2.72435 12.9782 2.72435 12.7006C2.72435 12.4231 2.95075 12.1966 3.22835 12.1966C3.50595 12.1966 3.73234 12.4231 3.73234 12.7006C3.73234 12.9782 3.50595 13.2046 3.22835 13.2046ZM7.26029 13.2046C6.98269 13.2046 6.7563 12.9782 6.7563 12.7006C6.7563 12.4231 6.98269 12.1966 7.26029 12.1966C7.53789 12.1966 7.76429 12.4231 7.76429 12.7006C7.76432 12.9782 7.53789 13.2046 7.26029 13.2046ZM6.33493 5.71192H4.15096C3.31725 5.71192 2.63898 5.03365 2.63898 4.19994C2.63898 3.36624 3.31725 2.68796 4.15096 2.68796H6.33493C7.16863 2.68796 7.84691 3.36624 7.84691 4.19994C7.84691 5.03365 7.16863 5.71192 6.33493 5.71192Z" fill="#6D6D6D"/>
<path d="M1.96826 16.9509C1.96826 17.0901 2.08109 17.2029 2.22026 17.2029H4.23623C4.3754 17.2029 4.48823 17.0901 4.48823 16.9509V16.2285H1.96826V16.9509Z" fill="#6D6D6D"/>
</svg>
